<?xml version="1.0" encoding="utf-8" standalone="no"?>
<!DOCTYPE svg PUBLIC "-//W3C//DTD SVG 1.1//EN"
  "http://www.w3.org/Graphics/SVG/1.1/DTD/svg11.dtd">
<svg xmlns:xlink="http://www.w3.org/1999/xlink" width="651.25625pt" height="379.059062pt" viewBox="0 0 651.25625 379.059062" xmlns="http://www.w3.org/2000/svg" version="1.1">
 <metadata>
  <rdf:RDF xmlns:dc="http://purl.org/dc/elements/1.1/" xmlns:cc="http://creativecommons.org/ns#" xmlns:rdf="http://www.w3.org/1999/02/22-rdf-syntax-ns#">
   <cc:Work>
    <dc:type rdf:resource="http://purl.org/dc/dcmitype/StillImage"/>
    <dc:date>2025-08-22T18:26:48.916436</dc:date>
    <dc:format>image/svg+xml</dc:format>
    <dc:creator>
     <cc:Agent>
      <dc:title>Matplotlib v3.9.2, https://matplotlib.org/</dc:title>
     </cc:Agent>
    </dc:creator>
   </cc:Work>
  </rdf:RDF>
 </metadata>
 <defs>
  <style type="text/css">*{stroke-linejoin: round; stroke-linecap: butt}</style>
 </defs>
 <g id="figure_1">
  <g id="patch_1">
   <path d="M 0 379.059062 
L 651.25625 379.059062 
L 651.25625 0 
L 0 0 
z
" style="fill: #ffffff"/>
  </g>
  <g id="axes_1">
   <g id="patch_2">
    <path d="M 86.05625 347.438437 
L 644.05625 347.438437 
L 644.05625 14.798437 
L 86.05625 14.798437 
z
" style="fill: #ffffff"/>
   </g>
   <g id="matplotlib.axis_1">
    <g id="xtick_1">
     <g id="line2d_1">
      <path d="M 127.90625 347.438437 
L 127.90625 14.798437 
" clip-path="url(#pe3598da5dc)" style="fill: none; stroke-dasharray: 3.7,1.6; stroke-dashoffset: 0; stroke: #b0b0b0; stroke-opacity: 0.5"/>
     </g>
     <g id="line2d_2">
      <defs>
       <path id="m8962a5cc3f" d="M 0 0 
L 0 3.5 
" style="stroke: #000000; stroke-width: 0.8"/>
      </defs>
      <g>
       <use xlink:href="#m8962a5cc3f" x="127.90625" y="347.438437" style="stroke: #000000; stroke-width: 0.8"/>
      </g>
     </g>
     <g id="text_1">
      <!-- 0.5 -->
      <g transform="translate(113.593437 368.115625) scale(0.18 -0.18)">
       <defs>
        <path id="DejaVuSans-30" d="M 2034 4250 
Q 1547 4250 1301 3770 
Q 1056 3291 1056 2328 
Q 1056 1369 1301 889 
Q 1547 409 2034 409 
Q 2525 409 2770 889 
Q 3016 1369 3016 2328 
Q 3016 3291 2770 3770 
Q 2525 4250 2034 4250 
z
M 2034 4750 
Q 2819 4750 3233 4129 
Q 3647 3509 3647 2328 
Q 3647 1150 3233 529 
Q 2819 -91 2034 -91 
Q 1250 -91 836 529 
Q 422 1150 422 2328 
Q 422 3509 836 4129 
Q 1250 4750 2034 4750 
z
" transform="scale(0.015625)"/>
        <path id="DejaVuSans-2e" d="M 684 794 
L 1344 794 
L 1344 0 
L 684 0 
L 684 794 
z
" transform="scale(0.015625)"/>
        <path id="DejaVuSans-35" d="M 691 4666 
L 3169 4666 
L 3169 4134 
L 1269 4134 
L 1269 2991 
Q 1406 3038 1543 3061 
Q 1681 3084 1819 3084 
Q 2600 3084 3056 2656 
Q 3513 2228 3513 1497 
Q 3513 744 3044 326 
Q 2575 -91 1722 -91 
Q 1428 -91 1123 -41 
Q 819 9 494 109 
L 494 744 
Q 775 591 1075 516 
Q 1375 441 1709 441 
Q 2250 441 2565 725 
Q 2881 1009 2881 1497 
Q 2881 1984 2565 2268 
Q 2250 2553 1709 2553 
Q 1456 2553 1204 2497 
Q 953 2441 691 2322 
L 691 4666 
z
" transform="scale(0.015625)"/>
       </defs>
       <use xlink:href="#DejaVuSans-30"/>
       <use xlink:href="#DejaVuSans-2e" x="63.623047"/>
       <use xlink:href="#DejaVuSans-35" x="95.410156"/>
      </g>
     </g>
    </g>
    <g id="xtick_2">
     <g id="line2d_3">
      <path d="M 204.63125 347.438437 
L 204.63125 14.798437 
" clip-path="url(#pe3598da5dc)" style="fill: none; stroke-dasharray: 3.7,1.6; stroke-dashoffset: 0; stroke: #b0b0b0; stroke-opacity: 0.5"/>
     </g>
     <g id="line2d_4">
      <g>
       <use xlink:href="#m8962a5cc3f" x="204.63125" y="347.438437" style="stroke: #000000; stroke-width: 0.8"/>
      </g>
     </g>
     <g id="text_2">
      <!-- 0.55 -->
      <g transform="translate(184.592188 368.115625) scale(0.18 -0.18)">
       <use xlink:href="#DejaVuSans-30"/>
       <use xlink:href="#DejaVuSans-2e" x="63.623047"/>
       <use xlink:href="#DejaVuSans-35" x="95.410156"/>
       <use xlink:href="#DejaVuSans-35" x="159.033203"/>
      </g>
     </g>
    </g>
    <g id="xtick_3">
     <g id="line2d_5">
      <path d="M 288.33125 347.438437 
L 288.33125 14.798437 
" clip-path="url(#pe3598da5dc)" style="fill: none; stroke-dasharray: 3.7,1.6; stroke-dashoffset: 0; stroke: #b0b0b0; stroke-opacity: 0.5"/>
     </g>
     <g id="line2d_6">
      <g>
       <use xlink:href="#m8962a5cc3f" x="288.33125" y="347.438437" style="stroke: #000000; stroke-width: 0.8"/>
      </g>
     </g>
     <g id="text_3">
      <!-- 0.6 -->
      <g transform="translate(274.018438 368.115625) scale(0.18 -0.18)">
       <defs>
        <path id="DejaVuSans-36" d="M 2113 2584 
Q 1688 2584 1439 2293 
Q 1191 2003 1191 1497 
Q 1191 994 1439 701 
Q 1688 409 2113 409 
Q 2538 409 2786 701 
Q 3034 994 3034 1497 
Q 3034 2003 2786 2293 
Q 2538 2584 2113 2584 
z
M 3366 4563 
L 3366 3988 
Q 3128 4100 2886 4159 
Q 2644 4219 2406 4219 
Q 1781 4219 1451 3797 
Q 1122 3375 1075 2522 
Q 1259 2794 1537 2939 
Q 1816 3084 2150 3084 
Q 2853 3084 3261 2657 
Q 3669 2231 3669 1497 
Q 3669 778 3244 343 
Q 2819 -91 2113 -91 
Q 1303 -91 875 529 
Q 447 1150 447 2328 
Q 447 3434 972 4092 
Q 1497 4750 2381 4750 
Q 2619 4750 2861 4703 
Q 3103 4656 3366 4563 
z
" transform="scale(0.015625)"/>
       </defs>
       <use xlink:href="#DejaVuSans-30"/>
       <use xlink:href="#DejaVuSans-2e" x="63.623047"/>
       <use xlink:href="#DejaVuSans-36" x="95.410156"/>
      </g>
     </g>
    </g>
    <g id="xtick_4">
     <g id="line2d_7">
      <path d="M 365.05625 347.438437 
L 365.05625 14.798437 
" clip-path="url(#pe3598da5dc)" style="fill: none; stroke-dasharray: 3.7,1.6; stroke-dashoffset: 0; stroke: #b0b0b0; stroke-opacity: 0.5"/>
     </g>
     <g id="line2d_8">
      <g>
       <use xlink:href="#m8962a5cc3f" x="365.05625" y="347.438437" style="stroke: #000000; stroke-width: 0.8"/>
      </g>
     </g>
     <g id="text_4">
      <!-- 0.65 -->
      <g transform="translate(345.017187 368.115625) scale(0.18 -0.18)">
       <use xlink:href="#DejaVuSans-30"/>
       <use xlink:href="#DejaVuSans-2e" x="63.623047"/>
       <use xlink:href="#DejaVuSans-36" x="95.410156"/>
       <use xlink:href="#DejaVuSans-35" x="159.033203"/>
      </g>
     </g>
    </g>
    <g id="xtick_5">
     <g id="line2d_9">
      <path d="M 441.78125 347.438437 
L 441.78125 14.798437 
" clip-path="url(#pe3598da5dc)" style="fill: none; stroke-dasharray: 3.7,1.6; stroke-dashoffset: 0; stroke: #b0b0b0; stroke-opacity: 0.5"/>
     </g>
     <g id="line2d_10">
      <g>
       <use xlink:href="#m8962a5cc3f" x="441.78125" y="347.438437" style="stroke: #000000; stroke-width: 0.8"/>
      </g>
     </g>
     <g id="text_5">
      <!-- 0.7 -->
      <g transform="translate(427.468437 368.115625) scale(0.18 -0.18)">
       <defs>
        <path id="DejaVuSans-37" d="M 525 4666 
L 3525 4666 
L 3525 4397 
L 1831 0 
L 1172 0 
L 2766 4134 
L 525 4134 
L 525 4666 
z
" transform="scale(0.015625)"/>
       </defs>
       <use xlink:href="#DejaVuSans-30"/>
       <use xlink:href="#DejaVuSans-2e" x="63.623047"/>
       <use xlink:href="#DejaVuSans-37" x="95.410156"/>
      </g>
     </g>
    </g>
    <g id="xtick_6">
     <g id="line2d_11">
      <path d="M 525.48125 347.438437 
L 525.48125 14.798437 
" clip-path="url(#pe3598da5dc)" style="fill: none; stroke-dasharray: 3.7,1.6; stroke-dashoffset: 0; stroke: #b0b0b0; stroke-opacity: 0.5"/>
     </g>
     <g id="line2d_12">
      <g>
       <use xlink:href="#m8962a5cc3f" x="525.48125" y="347.438437" style="stroke: #000000; stroke-width: 0.8"/>
      </g>
     </g>
     <g id="text_6">
      <!-- 0.75 -->
      <g transform="translate(505.442188 368.115625) scale(0.18 -0.18)">
       <use xlink:href="#DejaVuSans-30"/>
       <use xlink:href="#DejaVuSans-2e" x="63.623047"/>
       <use xlink:href="#DejaVuSans-37" x="95.410156"/>
       <use xlink:href="#DejaVuSans-35" x="159.033203"/>
      </g>
     </g>
    </g>
    <g id="xtick_7">
     <g id="line2d_13">
      <path d="M 602.20625 347.438437 
L 602.20625 14.798437 
" clip-path="url(#pe3598da5dc)" style="fill: none; stroke-dasharray: 3.7,1.6; stroke-dashoffset: 0; stroke: #b0b0b0; stroke-opacity: 0.5"/>
     </g>
     <g id="line2d_14">
      <g>
       <use xlink:href="#m8962a5cc3f" x="602.20625" y="347.438437" style="stroke: #000000; stroke-width: 0.8"/>
      </g>
     </g>
     <g id="text_7">
      <!-- 0.8 -->
      <g transform="translate(587.893438 368.115625) scale(0.18 -0.18)">
       <defs>
        <path id="DejaVuSans-38" d="M 2034 2216 
Q 1584 2216 1326 1975 
Q 1069 1734 1069 1313 
Q 1069 891 1326 650 
Q 1584 409 2034 409 
Q 2484 409 2743 651 
Q 3003 894 3003 1313 
Q 3003 1734 2745 1975 
Q 2488 2216 2034 2216 
z
M 1403 2484 
Q 997 2584 770 2862 
Q 544 3141 544 3541 
Q 544 4100 942 4425 
Q 1341 4750 2034 4750 
Q 2731 4750 3128 4425 
Q 3525 4100 3525 3541 
Q 3525 3141 3298 2862 
Q 3072 2584 2669 2484 
Q 3125 2378 3379 2068 
Q 3634 1759 3634 1313 
Q 3634 634 3220 271 
Q 2806 -91 2034 -91 
Q 1263 -91 848 271 
Q 434 634 434 1313 
Q 434 1759 690 2068 
Q 947 2378 1403 2484 
z
M 1172 3481 
Q 1172 3119 1398 2916 
Q 1625 2713 2034 2713 
Q 2441 2713 2670 2916 
Q 2900 3119 2900 3481 
Q 2900 3844 2670 4047 
Q 2441 4250 2034 4250 
Q 1625 4250 1398 4047 
Q 1172 3844 1172 3481 
z
" transform="scale(0.015625)"/>
       </defs>
       <use xlink:href="#DejaVuSans-30"/>
       <use xlink:href="#DejaVuSans-2e" x="63.623047"/>
       <use xlink:href="#DejaVuSans-38" x="95.410156"/>
      </g>
     </g>
    </g>
    <g id="xtick_8">
     <g id="line2d_15">
      <path d="M 127.90625 347.438437 
L 127.90625 14.798437 
" clip-path="url(#pe3598da5dc)" style="fill: none; stroke-dasharray: 3.7,1.6; stroke-dashoffset: 0; stroke: #b0b0b0; stroke-opacity: 0.5"/>
     </g>
     <g id="line2d_16">
      <g>
       <use xlink:href="#m8962a5cc3f" x="127.90625" y="347.438437" style="stroke: #000000; stroke-width: 0.8"/>
      </g>
     </g>
    </g>
    <g id="xtick_9">
     <g id="line2d_17">
      <path d="M 204.63125 347.438437 
L 204.63125 14.798437 
" clip-path="url(#pe3598da5dc)" style="fill: none; stroke-dasharray: 3.7,1.6; stroke-dashoffset: 0; stroke: #b0b0b0; stroke-opacity: 0.5"/>
     </g>
     <g id="line2d_18">
      <g>
       <use xlink:href="#m8962a5cc3f" x="204.63125" y="347.438437" style="stroke: #000000; stroke-width: 0.8"/>
      </g>
     </g>
    </g>
    <g id="xtick_10">
     <g id="line2d_19">
      <path d="M 288.33125 347.438437 
L 288.33125 14.798437 
" clip-path="url(#pe3598da5dc)" style="fill: none; stroke-dasharray: 3.7,1.6; stroke-dashoffset: 0; stroke: #b0b0b0; stroke-opacity: 0.5"/>
     </g>
     <g id="line2d_20">
      <g>
       <use xlink:href="#m8962a5cc3f" x="288.33125" y="347.438437" style="stroke: #000000; stroke-width: 0.8"/>
      </g>
     </g>
    </g>
    <g id="xtick_11">
     <g id="line2d_21">
      <path d="M 365.05625 347.438437 
L 365.05625 14.798437 
" clip-path="url(#pe3598da5dc)" style="fill: none; stroke-dasharray: 3.7,1.6; stroke-dashoffset: 0; stroke: #b0b0b0; stroke-opacity: 0.5"/>
     </g>
     <g id="line2d_22">
      <g>
       <use xlink:href="#m8962a5cc3f" x="365.05625" y="347.438437" style="stroke: #000000; stroke-width: 0.8"/>
      </g>
     </g>
    </g>
    <g id="xtick_12">
     <g id="line2d_23">
      <path d="M 441.78125 347.438437 
L 441.78125 14.798437 
" clip-path="url(#pe3598da5dc)" style="fill: none; stroke-dasharray: 3.7,1.6; stroke-dashoffset: 0; stroke: #b0b0b0; stroke-opacity: 0.5"/>
     </g>
     <g id="line2d_24">
      <g>
       <use xlink:href="#m8962a5cc3f" x="441.78125" y="347.438437" style="stroke: #000000; stroke-width: 0.8"/>
      </g>
     </g>
    </g>
    <g id="xtick_13">
     <g id="line2d_25">
      <path d="M 525.48125 347.438437 
L 525.48125 14.798437 
" clip-path="url(#pe3598da5dc)" style="fill: none; stroke-dasharray: 3.7,1.6; stroke-dashoffset: 0; stroke: #b0b0b0; stroke-opacity: 0.5"/>
     </g>
     <g id="line2d_26">
      <g>
       <use xlink:href="#m8962a5cc3f" x="525.48125" y="347.438437" style="stroke: #000000; stroke-width: 0.8"/>
      </g>
     </g>
    </g>
    <g id="xtick_14">
     <g id="line2d_27">
      <path d="M 602.20625 347.438437 
L 602.20625 14.798437 
" clip-path="url(#pe3598da5dc)" style="fill: none; stroke-dasharray: 3.7,1.6; stroke-dashoffset: 0; stroke: #b0b0b0; stroke-opacity: 0.5"/>
     </g>
     <g id="line2d_28">
      <g>
       <use xlink:href="#m8962a5cc3f" x="602.20625" y="347.438437" style="stroke: #000000; stroke-width: 0.8"/>
      </g>
     </g>
    </g>
   </g>
   <g id="matplotlib.axis_2">
    <g id="ytick_1">
     <g id="line2d_29">
      <path d="M 86.05625 270.675361 
L 644.05625 270.675361 
" clip-path="url(#pe3598da5dc)" style="fill: none; stroke-dasharray: 3.7,1.6; stroke-dashoffset: 0; stroke: #b0b0b0; stroke-opacity: 0.5"/>
     </g>
     <g id="line2d_30">
      <defs>
       <path id="m2cfb1f3da9" d="M 0 0 
L -8 0 
" style="stroke: #000000; stroke-width: 2"/>
      </defs>
      <g>
       <use xlink:href="#m2cfb1f3da9" x="86.05625" y="270.675361" style="stroke: #000000; stroke-width: 2"/>
      </g>
     </g>
     <g id="text_8">
      <!-- $10^{0}$ -->
      <g transform="translate(39.35625 278.273798) scale(0.2 -0.2)">
       <defs>
        <path id="DejaVuSans-31" d="M 794 531 
L 1825 531 
L 1825 4091 
L 703 3866 
L 703 4441 
L 1819 4666 
L 2450 4666 
L 2450 531 
L 3481 531 
L 3481 0 
L 794 0 
L 794 531 
z
" transform="scale(0.015625)"/>
       </defs>
       <use xlink:href="#DejaVuSans-31" transform="translate(0 0.765625)"/>
       <use xlink:href="#DejaVuSans-30" transform="translate(63.623047 0.765625)"/>
       <use xlink:href="#DejaVuSans-30" transform="translate(128.203125 39.046875) scale(0.7)"/>
      </g>
     </g>
    </g>
    <g id="ytick_2">
     <g id="line2d_31">
      <path d="M 86.05625 142.736899 
L 644.05625 142.736899 
" clip-path="url(#pe3598da5dc)" style="fill: none; stroke-dasharray: 3.7,1.6; stroke-dashoffset: 0; stroke: #b0b0b0; stroke-opacity: 0.5"/>
     </g>
     <g id="line2d_32">
      <g>
       <use xlink:href="#m2cfb1f3da9" x="86.05625" y="142.736899" style="stroke: #000000; stroke-width: 2"/>
      </g>
     </g>
     <g id="text_9">
      <!-- $10^{50}$ -->
      <g transform="translate(30.35625 150.335337) scale(0.2 -0.2)">
       <use xlink:href="#DejaVuSans-31" transform="translate(0 0.765625)"/>
       <use xlink:href="#DejaVuSans-30" transform="translate(63.623047 0.765625)"/>
       <use xlink:href="#DejaVuSans-35" transform="translate(128.203125 39.046875) scale(0.7)"/>
       <use xlink:href="#DejaVuSans-30" transform="translate(172.739258 39.046875) scale(0.7)"/>
      </g>
     </g>
    </g>
    <g id="ytick_3">
     <g id="line2d_33">
      <path d="M 86.05625 14.798437 
L 644.05625 14.798437 
" clip-path="url(#pe3598da5dc)" style="fill: none; stroke-dasharray: 3.7,1.6; stroke-dashoffset: 0; stroke: #b0b0b0; stroke-opacity: 0.5"/>
     </g>
     <g id="line2d_34">
      <g>
       <use xlink:href="#m2cfb1f3da9" x="86.05625" y="14.798437" style="stroke: #000000; stroke-width: 2"/>
      </g>
     </g>
     <g id="text_10">
      <!-- $10^{100}$ -->
      <g transform="translate(21.55625 22.396875) scale(0.2 -0.2)">
       <use xlink:href="#DejaVuSans-31" transform="translate(0 0.765625)"/>
       <use xlink:href="#DejaVuSans-30" transform="translate(63.623047 0.765625)"/>
       <use xlink:href="#DejaVuSans-31" transform="translate(128.203125 39.046875) scale(0.7)"/>
       <use xlink:href="#DejaVuSans-30" transform="translate(172.739258 39.046875) scale(0.7)"/>
       <use xlink:href="#DejaVuSans-30" transform="translate(217.275391 39.046875) scale(0.7)"/>
      </g>
     </g>
    </g>
    <g id="ytick_4">
     <g id="line2d_35">
      <path d="M 86.05625 347.438437 
L 644.05625 347.438437 
" clip-path="url(#pe3598da5dc)" style="fill: none; stroke-dasharray: 3.7,1.6; stroke-dashoffset: 0; stroke: #b0b0b0; stroke-opacity: 0.5"/>
     </g>
     <g id="line2d_36">
      <defs>
       <path id="m252bd23e8c" d="M 0 0 
L -4 0 
" style="stroke: #000000"/>
      </defs>
      <g>
       <use xlink:href="#m252bd23e8c" x="86.05625" y="347.438437" style="stroke: #000000"/>
      </g>
     </g>
     <g id="text_11">
      <!-- $10^{-30}$ -->
      <g transform="translate(39.59625 352.757344) scale(0.14 -0.14)">
       <defs>
        <path id="DejaVuSans-2212" d="M 678 2272 
L 4684 2272 
L 4684 1741 
L 678 1741 
L 678 2272 
z
" transform="scale(0.015625)"/>
        <path id="DejaVuSans-33" d="M 2597 2516 
Q 3050 2419 3304 2112 
Q 3559 1806 3559 1356 
Q 3559 666 3084 287 
Q 2609 -91 1734 -91 
Q 1441 -91 1130 -33 
Q 819 25 488 141 
L 488 750 
Q 750 597 1062 519 
Q 1375 441 1716 441 
Q 2309 441 2620 675 
Q 2931 909 2931 1356 
Q 2931 1769 2642 2001 
Q 2353 2234 1838 2234 
L 1294 2234 
L 1294 2753 
L 1863 2753 
Q 2328 2753 2575 2939 
Q 2822 3125 2822 3475 
Q 2822 3834 2567 4026 
Q 2313 4219 1838 4219 
Q 1578 4219 1281 4162 
Q 984 4106 628 3988 
L 628 4550 
Q 988 4650 1302 4700 
Q 1616 4750 1894 4750 
Q 2613 4750 3031 4423 
Q 3450 4097 3450 3541 
Q 3450 3153 3228 2886 
Q 3006 2619 2597 2516 
z
" transform="scale(0.015625)"/>
       </defs>
       <use xlink:href="#DejaVuSans-31" transform="translate(0 0.765625)"/>
       <use xlink:href="#DejaVuSans-30" transform="translate(63.623047 0.765625)"/>
       <use xlink:href="#DejaVuSans-2212" transform="translate(128.203125 39.046875) scale(0.7)"/>
       <use xlink:href="#DejaVuSans-33" transform="translate(186.855469 39.046875) scale(0.7)"/>
       <use xlink:href="#DejaVuSans-30" transform="translate(231.391602 39.046875) scale(0.7)"/>
      </g>
     </g>
    </g>
    <g id="ytick_5">
     <g id="line2d_37">
      <path d="M 86.05625 321.850745 
L 644.05625 321.850745 
" clip-path="url(#pe3598da5dc)" style="fill: none; stroke-dasharray: 3.7,1.6; stroke-dashoffset: 0; stroke: #b0b0b0; stroke-opacity: 0.5"/>
     </g>
     <g id="line2d_38">
      <g>
       <use xlink:href="#m252bd23e8c" x="86.05625" y="321.850745" style="stroke: #000000"/>
      </g>
     </g>
     <g id="text_12">
      <!-- $10^{-20}$ -->
      <g transform="translate(39.59625 327.169651) scale(0.14 -0.14)">
       <defs>
        <path id="DejaVuSans-32" d="M 1228 531 
L 3431 531 
L 3431 0 
L 469 0 
L 469 531 
Q 828 903 1448 1529 
Q 2069 2156 2228 2338 
Q 2531 2678 2651 2914 
Q 2772 3150 2772 3378 
Q 2772 3750 2511 3984 
Q 2250 4219 1831 4219 
Q 1534 4219 1204 4116 
Q 875 4013 500 3803 
L 500 4441 
Q 881 4594 1212 4672 
Q 1544 4750 1819 4750 
Q 2544 4750 2975 4387 
Q 3406 4025 3406 3419 
Q 3406 3131 3298 2873 
Q 3191 2616 2906 2266 
Q 2828 2175 2409 1742 
Q 1991 1309 1228 531 
z
" transform="scale(0.015625)"/>
       </defs>
       <use xlink:href="#DejaVuSans-31" transform="translate(0 0.765625)"/>
       <use xlink:href="#DejaVuSans-30" transform="translate(63.623047 0.765625)"/>
       <use xlink:href="#DejaVuSans-2212" transform="translate(128.203125 39.046875) scale(0.7)"/>
       <use xlink:href="#DejaVuSans-32" transform="translate(186.855469 39.046875) scale(0.7)"/>
       <use xlink:href="#DejaVuSans-30" transform="translate(231.391602 39.046875) scale(0.7)"/>
      </g>
     </g>
    </g>
    <g id="ytick_6">
     <g id="line2d_39">
      <path d="M 86.05625 296.263053 
L 644.05625 296.263053 
" clip-path="url(#pe3598da5dc)" style="fill: none; stroke-dasharray: 3.7,1.6; stroke-dashoffset: 0; stroke: #b0b0b0; stroke-opacity: 0.5"/>
     </g>
     <g id="line2d_40">
      <g>
       <use xlink:href="#m252bd23e8c" x="86.05625" y="296.263053" style="stroke: #000000"/>
      </g>
     </g>
     <g id="text_13">
      <!-- $10^{-10}$ -->
      <g transform="translate(39.59625 301.581959) scale(0.14 -0.14)">
       <use xlink:href="#DejaVuSans-31" transform="translate(0 0.765625)"/>
       <use xlink:href="#DejaVuSans-30" transform="translate(63.623047 0.765625)"/>
       <use xlink:href="#DejaVuSans-2212" transform="translate(128.203125 39.046875) scale(0.7)"/>
       <use xlink:href="#DejaVuSans-31" transform="translate(186.855469 39.046875) scale(0.7)"/>
       <use xlink:href="#DejaVuSans-30" transform="translate(231.391602 39.046875) scale(0.7)"/>
      </g>
     </g>
    </g>
    <g id="ytick_7">
     <g id="line2d_41">
      <path d="M 86.05625 245.087668 
L 644.05625 245.087668 
" clip-path="url(#pe3598da5dc)" style="fill: none; stroke-dasharray: 3.7,1.6; stroke-dashoffset: 0; stroke: #b0b0b0; stroke-opacity: 0.5"/>
     </g>
     <g id="line2d_42">
      <g>
       <use xlink:href="#m252bd23e8c" x="86.05625" y="245.087668" style="stroke: #000000"/>
      </g>
     </g>
     <g id="text_14">
      <!-- $10^{10}$ -->
      <g transform="translate(47.71625 250.406575) scale(0.14 -0.14)">
       <use xlink:href="#DejaVuSans-31" transform="translate(0 0.765625)"/>
       <use xlink:href="#DejaVuSans-30" transform="translate(63.623047 0.765625)"/>
       <use xlink:href="#DejaVuSans-31" transform="translate(128.203125 39.046875) scale(0.7)"/>
       <use xlink:href="#DejaVuSans-30" transform="translate(172.739258 39.046875) scale(0.7)"/>
      </g>
     </g>
    </g>
    <g id="ytick_8">
     <g id="line2d_43">
      <path d="M 86.05625 219.499976 
L 644.05625 219.499976 
" clip-path="url(#pe3598da5dc)" style="fill: none; stroke-dasharray: 3.7,1.6; stroke-dashoffset: 0; stroke: #b0b0b0; stroke-opacity: 0.5"/>
     </g>
     <g id="line2d_44">
      <g>
       <use xlink:href="#m252bd23e8c" x="86.05625" y="219.499976" style="stroke: #000000"/>
      </g>
     </g>
     <g id="text_15">
      <!-- $10^{20}$ -->
      <g transform="translate(47.71625 224.818882) scale(0.14 -0.14)">
       <use xlink:href="#DejaVuSans-31" transform="translate(0 0.765625)"/>
       <use xlink:href="#DejaVuSans-30" transform="translate(63.623047 0.765625)"/>
       <use xlink:href="#DejaVuSans-32" transform="translate(128.203125 39.046875) scale(0.7)"/>
       <use xlink:href="#DejaVuSans-30" transform="translate(172.739258 39.046875) scale(0.7)"/>
      </g>
     </g>
    </g>
    <g id="ytick_9">
     <g id="line2d_45">
      <path d="M 86.05625 193.912284 
L 644.05625 193.912284 
" clip-path="url(#pe3598da5dc)" style="fill: none; stroke-dasharray: 3.7,1.6; stroke-dashoffset: 0; stroke: #b0b0b0; stroke-opacity: 0.5"/>
     </g>
     <g id="line2d_46">
      <g>
       <use xlink:href="#m252bd23e8c" x="86.05625" y="193.912284" style="stroke: #000000"/>
      </g>
     </g>
     <g id="text_16">
      <!-- $10^{30}$ -->
      <g transform="translate(47.71625 199.23119) scale(0.14 -0.14)">
       <use xlink:href="#DejaVuSans-31" transform="translate(0 0.765625)"/>
       <use xlink:href="#DejaVuSans-30" transform="translate(63.623047 0.765625)"/>
       <use xlink:href="#DejaVuSans-33" transform="translate(128.203125 39.046875) scale(0.7)"/>
       <use xlink:href="#DejaVuSans-30" transform="translate(172.739258 39.046875) scale(0.7)"/>
      </g>
     </g>
    </g>
    <g id="ytick_10">
     <g id="line2d_47">
      <path d="M 86.05625 168.324591 
L 644.05625 168.324591 
" clip-path="url(#pe3598da5dc)" style="fill: none; stroke-dasharray: 3.7,1.6; stroke-dashoffset: 0; stroke: #b0b0b0; stroke-opacity: 0.5"/>
     </g>
     <g id="line2d_48">
      <g>
       <use xlink:href="#m252bd23e8c" x="86.05625" y="168.324591" style="stroke: #000000"/>
      </g>
     </g>
     <g id="text_17">
      <!-- $10^{40}$ -->
      <g transform="translate(47.71625 173.643498) scale(0.14 -0.14)">
       <defs>
        <path id="DejaVuSans-34" d="M 2419 4116 
L 825 1625 
L 2419 1625 
L 2419 4116 
z
M 2253 4666 
L 3047 4666 
L 3047 1625 
L 3713 1625 
L 3713 1100 
L 3047 1100 
L 3047 0 
L 2419 0 
L 2419 1100 
L 313 1100 
L 313 1709 
L 2253 4666 
z
" transform="scale(0.015625)"/>
       </defs>
       <use xlink:href="#DejaVuSans-31" transform="translate(0 0.765625)"/>
       <use xlink:href="#DejaVuSans-30" transform="translate(63.623047 0.765625)"/>
       <use xlink:href="#DejaVuSans-34" transform="translate(128.203125 39.046875) scale(0.7)"/>
       <use xlink:href="#DejaVuSans-30" transform="translate(172.739258 39.046875) scale(0.7)"/>
      </g>
     </g>
    </g>
    <g id="ytick_11">
     <g id="line2d_49">
      <path d="M 86.05625 117.149207 
L 644.05625 117.149207 
" clip-path="url(#pe3598da5dc)" style="fill: none; stroke-dasharray: 3.7,1.6; stroke-dashoffset: 0; stroke: #b0b0b0; stroke-opacity: 0.5"/>
     </g>
     <g id="line2d_50">
      <g>
       <use xlink:href="#m252bd23e8c" x="86.05625" y="117.149207" style="stroke: #000000"/>
      </g>
     </g>
     <g id="text_18">
      <!-- $10^{60}$ -->
      <g transform="translate(47.71625 122.468113) scale(0.14 -0.14)">
       <use xlink:href="#DejaVuSans-31" transform="translate(0 0.765625)"/>
       <use xlink:href="#DejaVuSans-30" transform="translate(63.623047 0.765625)"/>
       <use xlink:href="#DejaVuSans-36" transform="translate(128.203125 39.046875) scale(0.7)"/>
       <use xlink:href="#DejaVuSans-30" transform="translate(172.739258 39.046875) scale(0.7)"/>
      </g>
     </g>
    </g>
    <g id="ytick_12">
     <g id="line2d_51">
      <path d="M 86.05625 91.561514 
L 644.05625 91.561514 
" clip-path="url(#pe3598da5dc)" style="fill: none; stroke-dasharray: 3.7,1.6; stroke-dashoffset: 0; stroke: #b0b0b0; stroke-opacity: 0.5"/>
     </g>
     <g id="line2d_52">
      <g>
       <use xlink:href="#m252bd23e8c" x="86.05625" y="91.561514" style="stroke: #000000"/>
      </g>
     </g>
     <g id="text_19">
      <!-- $10^{70}$ -->
      <g transform="translate(47.71625 96.880421) scale(0.14 -0.14)">
       <use xlink:href="#DejaVuSans-31" transform="translate(0 0.765625)"/>
       <use xlink:href="#DejaVuSans-30" transform="translate(63.623047 0.765625)"/>
       <use xlink:href="#DejaVuSans-37" transform="translate(128.203125 39.046875) scale(0.7)"/>
       <use xlink:href="#DejaVuSans-30" transform="translate(172.739258 39.046875) scale(0.7)"/>
      </g>
     </g>
    </g>
    <g id="ytick_13">
     <g id="line2d_53">
      <path d="M 86.05625 65.973822 
L 644.05625 65.973822 
" clip-path="url(#pe3598da5dc)" style="fill: none; stroke-dasharray: 3.7,1.6; stroke-dashoffset: 0; stroke: #b0b0b0; stroke-opacity: 0.5"/>
     </g>
     <g id="line2d_54">
      <g>
       <use xlink:href="#m252bd23e8c" x="86.05625" y="65.973822" style="stroke: #000000"/>
      </g>
     </g>
     <g id="text_20">
      <!-- $10^{80}$ -->
      <g transform="translate(47.71625 71.292728) scale(0.14 -0.14)">
       <use xlink:href="#DejaVuSans-31" transform="translate(0 0.765625)"/>
       <use xlink:href="#DejaVuSans-30" transform="translate(63.623047 0.765625)"/>
       <use xlink:href="#DejaVuSans-38" transform="translate(128.203125 39.046875) scale(0.7)"/>
       <use xlink:href="#DejaVuSans-30" transform="translate(172.739258 39.046875) scale(0.7)"/>
      </g>
     </g>
    </g>
    <g id="ytick_14">
     <g id="line2d_55">
      <path d="M 86.05625 40.38613 
L 644.05625 40.38613 
" clip-path="url(#pe3598da5dc)" style="fill: none; stroke-dasharray: 3.7,1.6; stroke-dashoffset: 0; stroke: #b0b0b0; stroke-opacity: 0.5"/>
     </g>
     <g id="line2d_56">
      <g>
       <use xlink:href="#m252bd23e8c" x="86.05625" y="40.38613" style="stroke: #000000"/>
      </g>
     </g>
     <g id="text_21">
      <!-- $10^{90}$ -->
      <g transform="translate(47.71625 45.705036) scale(0.14 -0.14)">
       <defs>
        <path id="DejaVuSans-39" d="M 703 97 
L 703 672 
Q 941 559 1184 500 
Q 1428 441 1663 441 
Q 2288 441 2617 861 
Q 2947 1281 2994 2138 
Q 2813 1869 2534 1725 
Q 2256 1581 1919 1581 
Q 1219 1581 811 2004 
Q 403 2428 403 3163 
Q 403 3881 828 4315 
Q 1253 4750 1959 4750 
Q 2769 4750 3195 4129 
Q 3622 3509 3622 2328 
Q 3622 1225 3098 567 
Q 2575 -91 1691 -91 
Q 1453 -91 1209 -44 
Q 966 3 703 97 
z
M 1959 2075 
Q 2384 2075 2632 2365 
Q 2881 2656 2881 3163 
Q 2881 3666 2632 3958 
Q 2384 4250 1959 4250 
Q 1534 4250 1286 3958 
Q 1038 3666 1038 3163 
Q 1038 2656 1286 2365 
Q 1534 2075 1959 2075 
z
" transform="scale(0.015625)"/>
       </defs>
       <use xlink:href="#DejaVuSans-31" transform="translate(0 0.765625)"/>
       <use xlink:href="#DejaVuSans-30" transform="translate(63.623047 0.765625)"/>
       <use xlink:href="#DejaVuSans-39" transform="translate(128.203125 39.046875) scale(0.7)"/>
       <use xlink:href="#DejaVuSans-30" transform="translate(172.739258 39.046875) scale(0.7)"/>
      </g>
     </g>
    </g>
    <g id="text_22">
     <!-- CV-D/BND -->
     <g transform="translate(22.396875 231.073125) rotate(-90) scale(0.2 -0.2)">
      <defs>
       <path id="DejaVuSans-43" d="M 4122 4306 
L 4122 3641 
Q 3803 3938 3442 4084 
Q 3081 4231 2675 4231 
Q 1875 4231 1450 3742 
Q 1025 3253 1025 2328 
Q 1025 1406 1450 917 
Q 1875 428 2675 428 
Q 3081 428 3442 575 
Q 3803 722 4122 1019 
L 4122 359 
Q 3791 134 3420 21 
Q 3050 -91 2638 -91 
Q 1578 -91 968 557 
Q 359 1206 359 2328 
Q 359 3453 968 4101 
Q 1578 4750 2638 4750 
Q 3056 4750 3426 4639 
Q 3797 4528 4122 4306 
z
" transform="scale(0.015625)"/>
       <path id="DejaVuSans-56" d="M 1831 0 
L 50 4666 
L 709 4666 
L 2188 738 
L 3669 4666 
L 4325 4666 
L 2547 0 
L 1831 0 
z
" transform="scale(0.015625)"/>
       <path id="DejaVuSans-2d" d="M 313 2009 
L 1997 2009 
L 1997 1497 
L 313 1497 
L 313 2009 
z
" transform="scale(0.015625)"/>
       <path id="DejaVuSans-44" d="M 1259 4147 
L 1259 519 
L 2022 519 
Q 2988 519 3436 956 
Q 3884 1394 3884 2338 
Q 3884 3275 3436 3711 
Q 2988 4147 2022 4147 
L 1259 4147 
z
M 628 4666 
L 1925 4666 
Q 3281 4666 3915 4102 
Q 4550 3538 4550 2338 
Q 4550 1131 3912 565 
Q 3275 0 1925 0 
L 628 0 
L 628 4666 
z
" transform="scale(0.015625)"/>
       <path id="DejaVuSans-2f" d="M 1625 4666 
L 2156 4666 
L 531 -594 
L 0 -594 
L 1625 4666 
z
" transform="scale(0.015625)"/>
       <path id="DejaVuSans-42" d="M 1259 2228 
L 1259 519 
L 2272 519 
Q 2781 519 3026 730 
Q 3272 941 3272 1375 
Q 3272 1813 3026 2020 
Q 2781 2228 2272 2228 
L 1259 2228 
z
M 1259 4147 
L 1259 2741 
L 2194 2741 
Q 2656 2741 2882 2914 
Q 3109 3088 3109 3444 
Q 3109 3797 2882 3972 
Q 2656 4147 2194 4147 
L 1259 4147 
z
M 628 4666 
L 2241 4666 
Q 2963 4666 3353 4366 
Q 3744 4066 3744 3513 
Q 3744 3084 3544 2831 
Q 3344 2578 2956 2516 
Q 3422 2416 3680 2098 
Q 3938 1781 3938 1306 
Q 3938 681 3513 340 
Q 3088 0 2303 0 
L 628 0 
L 628 4666 
z
" transform="scale(0.015625)"/>
       <path id="DejaVuSans-4e" d="M 628 4666 
L 1478 4666 
L 3547 763 
L 3547 4666 
L 4159 4666 
L 4159 0 
L 3309 0 
L 1241 3903 
L 1241 0 
L 628 0 
L 628 4666 
z
" transform="scale(0.015625)"/>
      </defs>
      <use xlink:href="#DejaVuSans-43"/>
      <use xlink:href="#DejaVuSans-56" x="69.824219"/>
      <use xlink:href="#DejaVuSans-2d" x="132.357422"/>
      <use xlink:href="#DejaVuSans-44" x="168.441406"/>
      <use xlink:href="#DejaVuSans-2f" x="245.443359"/>
      <use xlink:href="#DejaVuSans-42" x="279.134766"/>
      <use xlink:href="#DejaVuSans-4e" x="347.738281"/>
      <use xlink:href="#DejaVuSans-44" x="422.542969"/>
     </g>
    </g>
   </g>
   <g id="line2d_57">
    <path d="M 86.05625 270.675361 
L 644.05625 270.675361 
" clip-path="url(#pe3598da5dc)" style="fill: none; stroke: #ff0000; stroke-opacity: 0.7; stroke-linecap: square"/>
   </g>
   <g id="patch_3">
    <path d="M 117.44375 243.194616 
L 138.36875 243.194616 
L 138.36875 -61.964639 
L 117.44375 -61.964639 
L 117.44375 243.194616 
z
" clip-path="url(#pe3598da5dc)" style="fill: #ffffff; stroke: #084a91; stroke-width: 1.8; stroke-linejoin: miter"/>
   </g>
   <g id="line2d_58">
    <path d="M 127.90625 243.194616 
L 127.90625 282.111044 
" clip-path="url(#pe3598da5dc)" style="fill: none; stroke: #084a91; stroke-linecap: square"/>
   </g>
   <g id="line2d_59">
    <path clip-path="url(#pe3598da5dc)" style="fill: none; stroke: #084a91; stroke-linecap: square"/>
   </g>
   <g id="line2d_60">
    <path d="M 122.675 282.111044 
L 133.1375 282.111044 
" clip-path="url(#pe3598da5dc)" style="fill: none; stroke: #084a91; stroke-width: 1.8; stroke-linecap: square"/>
   </g>
   <g id="line2d_61">
    <path clip-path="url(#pe3598da5dc)" style="fill: none; stroke: #084a91; stroke-width: 1.8; stroke-linecap: square"/>
   </g>
   <g id="line2d_62">
    <defs>
     <path id="m9682c42f04" d="M 0 3 
C 0.795609 3 1.55874 2.683901 2.12132 2.12132 
C 2.683901 1.55874 3 0.795609 3 0 
C 3 -0.795609 2.683901 -1.55874 2.12132 -2.12132 
C 1.55874 -2.683901 0.795609 -3 0 -3 
C -0.795609 -3 -1.55874 -2.683901 -2.12132 -2.12132 
C -2.683901 -1.55874 -3 -0.795609 -3 0 
C -3 0.795609 -2.683901 1.55874 -2.12132 2.12132 
C -1.55874 2.683901 -0.795609 3 0 3 
z
" style="stroke: #000000"/>
    </defs>
    <g clip-path="url(#pe3598da5dc)">
     <use xlink:href="#m9682c42f04" x="127.90625" y="430.602698" style="fill-opacity: 0; stroke: #000000"/>
     <use xlink:href="#m9682c42f04" x="127.90625" y="315.949986" style="fill-opacity: 0; stroke: #000000"/>
     <use xlink:href="#m9682c42f04" x="127.90625" y="340.721189" style="fill-opacity: 0; stroke: #000000"/>
     <use xlink:href="#m9682c42f04" x="127.90625" y="294.442944" style="fill-opacity: 0; stroke: #000000"/>
     <use xlink:href="#m9682c42f04" x="127.90625" y="305.192085" style="fill-opacity: 0; stroke: #000000"/>
    </g>
   </g>
   <g id="patch_4">
    <path d="M 194.16875 239.417404 
L 215.09375 239.417404 
L 215.09375 -61.964639 
L 194.16875 -61.964639 
L 194.16875 239.417404 
z
" clip-path="url(#pe3598da5dc)" style="fill: #ffffff; stroke: #084a91; stroke-width: 1.8; stroke-linejoin: miter"/>
   </g>
   <g id="line2d_63">
    <path d="M 204.63125 239.417404 
L 204.63125 276.451263 
" clip-path="url(#pe3598da5dc)" style="fill: none; stroke: #084a91; stroke-linecap: square"/>
   </g>
   <g id="line2d_64">
    <path clip-path="url(#pe3598da5dc)" style="fill: none; stroke: #084a91; stroke-linecap: square"/>
   </g>
   <g id="line2d_65">
    <path d="M 199.4 276.451263 
L 209.8625 276.451263 
" clip-path="url(#pe3598da5dc)" style="fill: none; stroke: #084a91; stroke-width: 1.8; stroke-linecap: square"/>
   </g>
   <g id="line2d_66">
    <path clip-path="url(#pe3598da5dc)" style="fill: none; stroke: #084a91; stroke-width: 1.8; stroke-linecap: square"/>
   </g>
   <g id="line2d_67">
    <g clip-path="url(#pe3598da5dc)">
     <use xlink:href="#m9682c42f04" x="204.63125" y="329.666851" style="fill-opacity: 0; stroke: #000000"/>
     <use xlink:href="#m9682c42f04" x="204.63125" y="353.355966" style="fill-opacity: 0; stroke: #000000"/>
     <use xlink:href="#m9682c42f04" x="204.63125" y="282.439067" style="fill-opacity: 0; stroke: #000000"/>
     <use xlink:href="#m9682c42f04" x="204.63125" y="277.313318" style="fill-opacity: 0; stroke: #000000"/>
     <use xlink:href="#m9682c42f04" x="204.63125" y="276.589458" style="fill-opacity: 0; stroke: #000000"/>
    </g>
   </g>
   <g id="patch_5">
    <path d="M 277.86875 261.766163 
L 298.79375 261.766163 
L 298.79375 172.539175 
L 277.86875 172.539175 
L 277.86875 261.766163 
z
" clip-path="url(#pe3598da5dc)" style="fill: #ffffff; stroke: #084a91; stroke-width: 1.8; stroke-linejoin: miter"/>
   </g>
   <g id="line2d_68">
    <path d="M 288.33125 261.766163 
L 288.33125 281.770422 
" clip-path="url(#pe3598da5dc)" style="fill: none; stroke: #084a91; stroke-linecap: square"/>
   </g>
   <g id="line2d_69">
    <path d="M 288.33125 172.539175 
L 288.33125 -1 
" clip-path="url(#pe3598da5dc)" style="fill: none; stroke: #084a91; stroke-linecap: square"/>
   </g>
   <g id="line2d_70">
    <path d="M 283.1 281.770422 
L 293.5625 281.770422 
" clip-path="url(#pe3598da5dc)" style="fill: none; stroke: #084a91; stroke-width: 1.8; stroke-linecap: square"/>
   </g>
   <g id="line2d_71">
    <path clip-path="url(#pe3598da5dc)" style="fill: none; stroke: #084a91; stroke-width: 1.8; stroke-linecap: square"/>
   </g>
   <g id="line2d_72">
    <g clip-path="url(#pe3598da5dc)">
     <use xlink:href="#m9682c42f04" x="288.33125" y="395.554015" style="fill-opacity: 0; stroke: #000000"/>
     <use xlink:href="#m9682c42f04" x="288.33125" y="285.223188" style="fill-opacity: 0; stroke: #000000"/>
     <use xlink:href="#m9682c42f04" x="288.33125" y="454.646834" style="fill-opacity: 0; stroke: #000000"/>
     <use xlink:href="#m9682c42f04" x="288.33125" y="289.002979" style="fill-opacity: 0; stroke: #000000"/>
     <use xlink:href="#m9682c42f04" x="288.33125" y="308.489169" style="fill-opacity: 0; stroke: #000000"/>
    </g>
   </g>
   <g id="patch_6">
    <path d="M 354.59375 266.526919 
L 375.51875 266.526919 
L 375.51875 189.210222 
L 354.59375 189.210222 
L 354.59375 266.526919 
z
" clip-path="url(#pe3598da5dc)" style="fill: #ffffff; stroke: #084a91; stroke-width: 1.8; stroke-linejoin: miter"/>
   </g>
   <g id="line2d_73">
    <path d="M 365.05625 266.526919 
L 365.05625 283.599558 
" clip-path="url(#pe3598da5dc)" style="fill: none; stroke: #084a91; stroke-linecap: square"/>
   </g>
   <g id="line2d_74">
    <path d="M 365.05625 189.210222 
L 365.05625 -1 
" clip-path="url(#pe3598da5dc)" style="fill: none; stroke: #084a91; stroke-linecap: square"/>
   </g>
   <g id="line2d_75">
    <path d="M 359.825 283.599558 
L 370.2875 283.599558 
" clip-path="url(#pe3598da5dc)" style="fill: none; stroke: #084a91; stroke-width: 1.8; stroke-linecap: square"/>
   </g>
   <g id="line2d_76">
    <path clip-path="url(#pe3598da5dc)" style="fill: none; stroke: #084a91; stroke-width: 1.8; stroke-linecap: square"/>
   </g>
   <g id="line2d_77">
    <g clip-path="url(#pe3598da5dc)">
     <use xlink:href="#m9682c42f04" x="365.05625" y="296.299555" style="fill-opacity: 0; stroke: #000000"/>
     <use xlink:href="#m9682c42f04" x="365.05625" y="351.54412" style="fill-opacity: 0; stroke: #000000"/>
     <use xlink:href="#m9682c42f04" x="365.05625" y="301.97984" style="fill-opacity: 0; stroke: #000000"/>
     <use xlink:href="#m9682c42f04" x="365.05625" y="330.739248" style="fill-opacity: 0; stroke: #000000"/>
     <use xlink:href="#m9682c42f04" x="365.05625" y="304.457021" style="fill-opacity: 0; stroke: #000000"/>
     <use xlink:href="#m9682c42f04" x="365.05625" y="-1" style="fill-opacity: 0; stroke: #000000"/>
    </g>
   </g>
   <g id="patch_7">
    <path d="M 431.31875 260.791217 
L 452.24375 260.791217 
L 452.24375 201.80894 
L 431.31875 201.80894 
L 431.31875 260.791217 
z
" clip-path="url(#pe3598da5dc)" style="fill: #ffffff; stroke: #084a91; stroke-width: 1.8; stroke-linejoin: miter"/>
   </g>
   <g id="line2d_78">
    <path d="M 441.78125 260.791217 
L 441.78125 272.366477 
" clip-path="url(#pe3598da5dc)" style="fill: none; stroke: #084a91; stroke-linecap: square"/>
   </g>
   <g id="line2d_79">
    <path d="M 441.78125 201.80894 
L 441.78125 145.968466 
" clip-path="url(#pe3598da5dc)" style="fill: none; stroke: #084a91; stroke-linecap: square"/>
   </g>
   <g id="line2d_80">
    <path d="M 436.55 272.366477 
L 447.0125 272.366477 
" clip-path="url(#pe3598da5dc)" style="fill: none; stroke: #084a91; stroke-width: 1.8; stroke-linecap: square"/>
   </g>
   <g id="line2d_81">
    <path d="M 436.55 145.968466 
L 447.0125 145.968466 
" clip-path="url(#pe3598da5dc)" style="fill: none; stroke: #084a91; stroke-width: 1.8; stroke-linecap: square"/>
   </g>
   <g id="line2d_82">
    <g clip-path="url(#pe3598da5dc)">
     <use xlink:href="#m9682c42f04" x="441.78125" y="296.119246" style="fill-opacity: 0; stroke: #000000"/>
     <use xlink:href="#m9682c42f04" x="441.78125" y="293.307608" style="fill-opacity: 0; stroke: #000000"/>
     <use xlink:href="#m9682c42f04" x="441.78125" y="290.166467" style="fill-opacity: 0; stroke: #000000"/>
     <use xlink:href="#m9682c42f04" x="441.78125" y="273.636918" style="fill-opacity: 0; stroke: #000000"/>
     <use xlink:href="#m9682c42f04" x="441.78125" y="313.484627" style="fill-opacity: 0; stroke: #000000"/>
     <use xlink:href="#m9682c42f04" x="441.78125" y="101.409306" style="fill-opacity: 0; stroke: #000000"/>
     <use xlink:href="#m9682c42f04" x="441.78125" y="118.220549" style="fill-opacity: 0; stroke: #000000"/>
     <use xlink:href="#m9682c42f04" x="441.78125" y="-1" style="fill-opacity: 0; stroke: #000000"/>
     <use xlink:href="#m9682c42f04" x="441.78125" y="-1" style="fill-opacity: 0; stroke: #000000"/>
     <use xlink:href="#m9682c42f04" x="441.78125" y="129.199466" style="fill-opacity: 0; stroke: #000000"/>
     <use xlink:href="#m9682c42f04" x="441.78125" y="118.108884" style="fill-opacity: 0; stroke: #000000"/>
    </g>
   </g>
   <g id="patch_8">
    <path d="M 515.01875 266.661146 
L 535.94375 266.661146 
L 535.94375 231.41291 
L 515.01875 231.41291 
L 515.01875 266.661146 
z
" clip-path="url(#pe3598da5dc)" style="fill: #ffffff; stroke: #084a91; stroke-width: 1.8; stroke-linejoin: miter"/>
   </g>
   <g id="line2d_83">
    <path d="M 525.48125 266.661146 
L 525.48125 279.740404 
" clip-path="url(#pe3598da5dc)" style="fill: none; stroke: #084a91; stroke-linecap: square"/>
   </g>
   <g id="line2d_84">
    <path d="M 525.48125 231.41291 
L 525.48125 180.473507 
" clip-path="url(#pe3598da5dc)" style="fill: none; stroke: #084a91; stroke-linecap: square"/>
   </g>
   <g id="line2d_85">
    <path d="M 520.25 279.740404 
L 530.7125 279.740404 
" clip-path="url(#pe3598da5dc)" style="fill: none; stroke: #084a91; stroke-width: 1.8; stroke-linecap: square"/>
   </g>
   <g id="line2d_86">
    <path d="M 520.25 180.473507 
L 530.7125 180.473507 
" clip-path="url(#pe3598da5dc)" style="fill: none; stroke: #084a91; stroke-width: 1.8; stroke-linecap: square"/>
   </g>
   <g id="line2d_87">
    <g clip-path="url(#pe3598da5dc)">
     <use xlink:href="#m9682c42f04" x="525.48125" y="285.770634" style="fill-opacity: 0; stroke: #000000"/>
     <use xlink:href="#m9682c42f04" x="525.48125" y="331.984453" style="fill-opacity: 0; stroke: #000000"/>
     <use xlink:href="#m9682c42f04" x="525.48125" y="310.350176" style="fill-opacity: 0; stroke: #000000"/>
     <use xlink:href="#m9682c42f04" x="525.48125" y="281.181598" style="fill-opacity: 0; stroke: #000000"/>
     <use xlink:href="#m9682c42f04" x="525.48125" y="288.661864" style="fill-opacity: 0; stroke: #000000"/>
     <use xlink:href="#m9682c42f04" x="525.48125" y="-1" style="fill-opacity: 0; stroke: #000000"/>
     <use xlink:href="#m9682c42f04" x="525.48125" y="-1" style="fill-opacity: 0; stroke: #000000"/>
     <use xlink:href="#m9682c42f04" x="525.48125" y="93.053595" style="fill-opacity: 0; stroke: #000000"/>
     <use xlink:href="#m9682c42f04" x="525.48125" y="-1" style="fill-opacity: 0; stroke: #000000"/>
     <use xlink:href="#m9682c42f04" x="525.48125" y="-1" style="fill-opacity: 0; stroke: #000000"/>
     <use xlink:href="#m9682c42f04" x="525.48125" y="154.291585" style="fill-opacity: 0; stroke: #000000"/>
     <use xlink:href="#m9682c42f04" x="525.48125" y="-1" style="fill-opacity: 0; stroke: #000000"/>
    </g>
   </g>
   <g id="patch_9">
    <path d="M 591.74375 268.584429 
L 612.66875 268.584429 
L 612.66875 240.030789 
L 591.74375 240.030789 
L 591.74375 268.584429 
z
" clip-path="url(#pe3598da5dc)" style="fill: #ffffff; stroke: #084a91; stroke-width: 1.8; stroke-linejoin: miter"/>
   </g>
   <g id="line2d_88">
    <path d="M 602.20625 268.584429 
L 602.20625 282.013076 
" clip-path="url(#pe3598da5dc)" style="fill: none; stroke: #084a91; stroke-linecap: square"/>
   </g>
   <g id="line2d_89">
    <path d="M 602.20625 240.030789 
L 602.20625 210.771087 
" clip-path="url(#pe3598da5dc)" style="fill: none; stroke: #084a91; stroke-linecap: square"/>
   </g>
   <g id="line2d_90">
    <path d="M 596.975 282.013076 
L 607.4375 282.013076 
" clip-path="url(#pe3598da5dc)" style="fill: none; stroke: #084a91; stroke-width: 1.8; stroke-linecap: square"/>
   </g>
   <g id="line2d_91">
    <path d="M 596.975 210.771087 
L 607.4375 210.771087 
" clip-path="url(#pe3598da5dc)" style="fill: none; stroke: #084a91; stroke-width: 1.8; stroke-linecap: square"/>
   </g>
   <g id="line2d_92">
    <g clip-path="url(#pe3598da5dc)">
     <use xlink:href="#m9682c42f04" x="602.20625" y="282.900939" style="fill-opacity: 0; stroke: #000000"/>
     <use xlink:href="#m9682c42f04" x="602.20625" y="333.508561" style="fill-opacity: 0; stroke: #000000"/>
     <use xlink:href="#m9682c42f04" x="602.20625" y="303.458838" style="fill-opacity: 0; stroke: #000000"/>
     <use xlink:href="#m9682c42f04" x="602.20625" y="286.115214" style="fill-opacity: 0; stroke: #000000"/>
     <use xlink:href="#m9682c42f04" x="602.20625" y="317.590995" style="fill-opacity: 0; stroke: #000000"/>
     <use xlink:href="#m9682c42f04" x="602.20625" y="202.944672" style="fill-opacity: 0; stroke: #000000"/>
     <use xlink:href="#m9682c42f04" x="602.20625" y="127.096545" style="fill-opacity: 0; stroke: #000000"/>
     <use xlink:href="#m9682c42f04" x="602.20625" y="184.381739" style="fill-opacity: 0; stroke: #000000"/>
     <use xlink:href="#m9682c42f04" x="602.20625" y="69.381879" style="fill-opacity: 0; stroke: #000000"/>
     <use xlink:href="#m9682c42f04" x="602.20625" y="175.225722" style="fill-opacity: 0; stroke: #000000"/>
    </g>
   </g>
   <g id="line2d_93">
    <path d="M 117.44375 122.40818 
L 138.36875 122.40818 
" clip-path="url(#pe3598da5dc)" style="fill: none; stroke: #4a98c9; stroke-width: 1.5"/>
   </g>
   <g id="line2d_94">
    <path d="M 194.16875 192.271144 
L 215.09375 192.271144 
" clip-path="url(#pe3598da5dc)" style="fill: none; stroke: #4a98c9; stroke-width: 1.5"/>
   </g>
   <g id="line2d_95">
    <path d="M 277.86875 229.167404 
L 298.79375 229.167404 
" clip-path="url(#pe3598da5dc)" style="fill: none; stroke: #4a98c9; stroke-width: 1.5"/>
   </g>
   <g id="line2d_96">
    <path d="M 354.59375 243.167346 
L 375.51875 243.167346 
" clip-path="url(#pe3598da5dc)" style="fill: none; stroke: #4a98c9; stroke-width: 1.5"/>
   </g>
   <g id="line2d_97">
    <path d="M 431.31875 244.785848 
L 452.24375 244.785848 
" clip-path="url(#pe3598da5dc)" style="fill: none; stroke: #4a98c9; stroke-width: 1.5"/>
   </g>
   <g id="line2d_98">
    <path d="M 515.01875 258.550852 
L 535.94375 258.550852 
" clip-path="url(#pe3598da5dc)" style="fill: none; stroke: #4a98c9; stroke-width: 1.5"/>
   </g>
   <g id="line2d_99">
    <path d="M 591.74375 260.868593 
L 612.66875 260.868593 
" clip-path="url(#pe3598da5dc)" style="fill: none; stroke: #4a98c9; stroke-width: 1.5"/>
   </g>
   <g id="patch_10">
    <path d="M 86.05625 347.438437 
L 86.05625 14.798437 
" style="fill: none; stroke: #000000; stroke-linejoin: miter; stroke-linecap: square"/>
   </g>
   <g id="patch_11">
    <path d="M 644.05625 347.438437 
L 644.05625 14.798437 
" style="fill: none; stroke: #000000; stroke-linejoin: miter; stroke-linecap: square"/>
   </g>
   <g id="patch_12">
    <path d="M 86.05625 347.438437 
L 644.05625 347.438437 
" style="fill: none; stroke: #000000; stroke-linejoin: miter; stroke-linecap: square"/>
   </g>
   <g id="patch_13">
    <path d="M 86.05625 14.798437 
L 644.05625 14.798437 
" style="fill: none; stroke: #000000; stroke-linejoin: miter; stroke-linecap: square"/>
   </g>
  </g>
 </g>
 <defs>
  <clipPath id="pe3598da5dc">
   <rect x="86.05625" y="14.798437" width="558" height="332.64"/>
  </clipPath>
 </defs>
</svg>
